<svg version="1" xmlns="http://www.w3.org/2000/svg" width="172" height="120"><g fill="#E6E4E3"><path d="M158.7 60.5c0 15.8-2.6 29.9-18.6 39-11.8 6.7-33.8 14.5-50.1 14.5-20.9 0-44.2-6.5-56.9-17C22.5 88.3 20 73 20 60.5c0-17.1 12.6-33.7 31-42.6 11.1-5.4 24.6-7.1 39-7.1 17.5 0 33.9-1.1 46.1 6.6 14.4 9.1 22.6 28.2 22.6 43.1z"/><path opacity=".5" d="M162.2 57.3c0 17.2-.4 38.8-17.9 48.7-12.9 7.3-39.3 11.9-57 11.9-22.8 0-48.2-9.4-62.1-20.8C13.7 87.6 11 70.8 11 57.3c0-18.7 9.6-30.5 29.7-40.2 12.1-5.8 31-14 46.6-14 19.1 0 42.5 3 55.8 11.4 15.8 9.9 19.1 26.5 19.1 42.8z"/></g><path fill="#C9C7C7" d="M41.3 82.1V30.7l44.5 25.7v50.9z"/><path fill="#FFF" d="M41.3 30.7L85.4 5.6l43.9 25.1-43.5 25.7z"/><path fill="#FFF" d="M129.3 81.5l-43.5 25.8V56.4z"/><path fill="#E6E4E3" d="M74.7 42.4l-4.5 2.5L86 56.4zM129 81.4l-43.2.4V56.4z"/><path fill="#C9C7C7" d="M129.3 30.7v50.5L85.8 56.4z"/><path fill="#FFF" stroke="#8B8A8D" stroke-width="1.5" stroke-linecap="round" stroke-linejoin="round" stroke-miterlimit="10" d="M129.3 81.2l19.3 11.2-44.3 25.3-18.5-10.4"/><path fill="none" stroke="#8B8A8D" stroke-width="1.5" stroke-linecap="round" stroke-linejoin="round" stroke-miterlimit="10" d="M85.4 5.6L41.3 30.7v51.4l44.5 25.2V56.4l43.5-25.7z"/><path fill="#FFF" stroke="#8B8A8D" stroke-width="1.5" stroke-linecap="round" stroke-linejoin="round" stroke-miterlimit="10" d="M85.8 56.4l-20.6 1.1v49.8h20.6zM85.8 56.4L70.9 38l43.5-24.8 14.9 17.5zM129.3 81.2L139.4 71V20.6l-10.1 10.2z"/><path fill="#FFF" stroke="#E6E4E3" stroke-width="1.5" stroke-linecap="round" stroke-linejoin="round" stroke-miterlimit="10" stroke-dasharray="4" d="M126.4 82.7l-37 22.4"/></svg>