<svg viewBox="0 0 137 30" xmlns="http://www.w3.org/2000/svg" xmlns:xlink="http://www.w3.org/1999/xlink"><defs><path id="a" d="M.264.401h19.328V29.94H.264z"/></defs><g fill="none" fill-rule="evenodd"><path d="M102.14 28.628c0 .749.541 1.122 1.081 1.122.54 0 1.081-.373 1.081-1.122V1.316c0-.749-.541-1.123-1.081-1.123-.54 0-1.081.374-1.081 1.123v27.312m18.915-1.206h-5.862c-.83 0-1.08-.332-1.08-1.246V3.727c0-.914.25-1.247 1.08-1.247h5.572c8.854 0 13.053 5.196 13.053 12.471 0 7.483-4.656 12.471-12.763 12.471zM121.18.401h-6.651c-1.746 0-2.578.915-2.578 2.786v23.529c0 1.87.832 2.785 2.578 2.785h6.277c9.52 0 15.256-6.069 15.256-14.758 0-8.73-5.611-14.342-14.882-14.342zM2.079 3.727c0-.748.208-.914.499-.914.291 0 .54.457.665.623l16.088 24.402c.374.541.998 1.455 2.452 1.455 1.58 0 2.411-1.122 2.411-2.826V1.357c0-.748-.498-1.122-1.039-1.122-.54 0-1.039.374-1.039 1.122v24.819c0 .748-.208.914-.499.914-.291 0-.54-.457-.665-.623L4.864 2.064C4.49 1.523 3.866.609 2.411.609.832.609 0 1.731 0 3.436v25.192c0 .749.499 1.122 1.039 1.122.541 0 1.04-.373 1.04-1.122V3.727m52.297 24.901c0 .749.499 1.122 1.039 1.122.54 0 1.039-.373 1.039-1.122V3.519c0-.748.166-.914.457-.914.291 0 .582.457.707.623l8.98 12.638c.249.374.54.54.914.54.375 0 .666-.166.914-.54l9.063-12.638c.124-.166.415-.623.706-.623s.457.166.457.914v25.109c0 .749.5 1.122 1.04 1.122s1.039-.373 1.039-1.122V3.145c0-1.705-.79-2.744-2.369-2.744-1.455 0-2.038.831-2.495 1.455l-8.313 11.848-8.315-11.848c-.416-.582-.998-1.455-2.452-1.455-1.58 0-2.411 1.122-2.411 2.827v25.4" fill="#0E1318"/><g transform="translate(30)"><mask id="b" fill="#fff"><use xlink:href="#a"/></mask><path d="M10.987 14.2c.408.408 1.105.387 1.484.008.436-.435.311-1.099-.107-1.517L4.172 3.976c-.458-.498-.624-.706-.624-.997 0-.291.208-.499.665-.499h12.721c.748-.042 1.123-.499 1.123-1.04 0-.54-.375-1.039-1.123-1.039H3.631c-1.455 0-2.452.748-2.452 2.037 0 1.206.872 2.162 1.621 2.952l8.187 8.81m8.408 11.263c.361-.618.203-1.203-.29-1.527-.452-.296-1.09-.232-1.485.367-.488.625-2.614 3.619-7.37 3.619-3.742 0-7.816-2.213-7.816-6.943 0-4.168 4.066-5.99 4.798-6.331.701-.325.824-.928.561-1.423-.252-.478-.765-.732-1.467-.433-1.096.374-6.062 2.646-6.062 8.27C.264 26.591 4.712 30 9.992 30c4.848 0 8.089-2.286 9.403-4.537" fill="#0E1318" mask="url(#b)"/></g></g></svg>