<svg xmlns="http://www.w3.org/2000/svg" width="144" height="120"><defs><style>.a,.c{fill:#e6e4e3}.a{opacity:.5}.d{fill:#fff}.e,.g{fill:none;stroke-width:1.5px}.e{stroke:#8b8a8d;stroke-miterlimit:10}.f{fill:#8b8a8d}.g{stroke:#c9c7c7;stroke-linecap:round;stroke-linejoin:round}</style></defs><path class="a" d="M69.53 6.62c12.72.22 31.13 1.63 41.38 7 17.08 9 21.24 30.56 22.66 47.32.82 9.63-.5 23.1-6 30.54-9.77 13.28-31.35 24.48-53.08 24.11C55.67 115.3 39.17 109 27 98.26c-9.75-8.6-14.55-26.62-15.56-38.55-1.12-13.12 12.39-22.4 22.34-30.95C44.18 19.83 52.2 6.33 69.53 6.62z"/><path class="a" d="M78.22 12.3c11.61 1 24.17 3.57 32.69 9.14 14.2 9.26 19.37 30.63 18 46-.79 8.81-1.32 17.69-7.52 24.11-11.06 11.46-33.69 21-53.54 19.26-17.18-1.48-33.72-7.33-43.15-17.86-7.55-8.45-9.08-25.13-8.11-36 1.06-12 14.9-19.58 25.38-26.72 10.94-7.54 20.44-19.3 36.25-17.93z"/><path d="M43.64 43.57S68.08 29.74 75.41 26c5-2.54 28.73 14.55 28.73 19.46l-9.26 2.84v31.09a14.08 14.08 0 0 1-7.31 12.35L68 113.07c-5.85 3.21-31.64-13.71-31.64-22.94l1.24-36.46a11.47 11.47 0 0 1 6.04-10.1z" fill="#c9c7c7"/><path class="c" d="M59.95 59.02L40.53 46.03l-2.65 5.19 19.05 12.91 3.02-5.11z"/><path class="d" d="M62.54 57.11l32-17.31a6.48 6.48 0 0 1 9.57 5.7l1.68 38.81a14.07 14.07 0 0 1-7.29 12.35l-29 15.75c-5.83 3.21-14.5-1.68-14.5-9.34l1.51-35.86a11.48 11.48 0 0 1 6.03-10.1z"/><path class="e" d="M100 39.46C95.43 35.56 78.68 24.38 75.41 26c-7.33 3.7-31.77 17.53-31.77 17.53a11.47 11.47 0 0 0-6 10.1l-1.26 36.5c-.58 8.76 24.15 28.06 35.62 21.23.46-.27 26.55-14.53 26.55-14.53a14.07 14.07 0 0 0 7.32-12.35l-1.68-36c-.05-5.87-2.97-7.89-4.19-9.02z"/><path class="f" d="M73.66 72.11c-1.55-1.53-2-3.19-1-5a3.66 3.66 0 0 1 4.85-1.69l14.36 14c1.54 1.46 2 3.18 1 5A3.65 3.65 0 0 1 88 86.14zM62.56 47.34c0 1.06-1.06 2-2.66 2.55a10.24 10.24 0 0 1-3.32.52c-3.3 0-6-1.37-6-3.07s2.68-3.08 6-3.08 5.98 1.38 5.98 3.08zM87.12 36.17c0 1.07-1.05 2-2.65 2.56a10.52 10.52 0 0 1-3.32.51c-3.31 0-6-1.37-6-3.07s2.67-3.08 6-3.08 5.97 1.38 5.97 3.08z"/><path class="f" d="M94.23 60.93c.93-1.89.56-4-.82-4.66s-3.26.31-4.19 2.2L72.64 89.84c-.93 1.89-.56 4 .82 4.66s3.26-.3 4.19-2.2z"/><path class="g" d="M43.3 31.2s-5.18-8.26 2.14-20.48M47.68 22.65s-.79-4.44 2.92-10.11"/><path class="d" d="M85.4 35.32v-13.7C85.7 16.08 84 11 80.72 7.75c-6.38-6.37-16.44-4.27-22.91 4.78a26 26 0 0 0-4.89 15.38v19.58s.39 2.18 4 2.18c4 0 3.78-2.18 3.78-2.18V27.78a15.74 15.74 0 0 1 3.06-9.35c3.61-5 9-6.71 12-3.69a8.22 8.22 0 0 1 1.94 6.54v14s0 2.82 4.28 2.92a3.1 3.1 0 0 0 3.42-2.88z"/><path class="c" d="M81.15 38.24V21c0-8.8-10-9-10.7-8.12-.31.42 6.74-1.77 6.87 5.58s.13 16.84.13 16.84-1.45 2.91 3.7 2.94zM58.87 13.43a40.06 40.06 0 0 0-3 14.51v21.73c-3.57 0-3-3.18-3-3.18V27.91a26 26 0 0 1 4.9-15.38 22.15 22.15 0 0 1 6.63-6.25 16 16 0 0 1 1.79-.92s-5.29 3.2-7.32 8.07z"/><path class="e" d="M85.4 35.32v-13.7C85.7 16.08 84 11 80.71 7.75c-6.39-6.37-16.47-4.27-22.95 4.78a26 26 0 0 0-4.9 15.38v19.58s.4 2.18 4 2.18c4 0 3.78-2.18 3.78-2.18V27.78a15.82 15.82 0 0 1 3.07-9.35c3.62-5 9-6.71 12-3.69a8.23 8.23 0 0 1 2 6.54v14s0 2.82 4.29 2.92a3.1 3.1 0 0 0 3.4-2.88z"/></svg>