<svg height="120" version="1" width="141" xmlns="http://www.w3.org/2000/svg"><path d="M138.9 60.2c0 15.8.1 29.3-15.5 39.3-14 8.9-29.1 15.1-49.7 15.1-21.7 0-35.5-7-49.7-16.9s-20.7-20-20.7-35c0-14.4 3.9-24.6 17.1-34.3C34.8 17.8 47.9 13 70.5 13c18.7 0 24.2 0 37.8 7.6 17.9 9.9 30.6 22.5 30.6 39.6z" fill="#E6E4E3" opacity=".5"/><path d="M134.5 59.7c0 13.6-5.8 24.8-19.2 33.3-12.1 7.7-18.4 16.9-36.1 16.9-18.7 0-37.4-5.3-49.7-13.8S7.7 80 7.7 67.1c0-12.4 0-23.7 11.3-32C31.4 26 50.4 18.7 69.8 18.7c16.1 0 19.1 3.6 30.7 10.1 15.4 8.6 34 16.2 34 30.9z" fill="#E6E4E3"/><path d="M30.9 19.9S55.3 6.1 62.7 2.4c5-2.5 19.1 6.7 19.1 11.7l-9.3 2.8v31c0 5.1-2.8 9.9-7.3 12.4L45.7 81.6c-5.8 3.2-20.8-4.9-20.8-14.1V30c0-4.2 2.3-8.1 6-10.1z" fill="#C9C7C7"/><path d="M40.2 25.6l32-17.3c3.1-1.7 7.1-.6 8.8 2.6.5 1 .8 2 .8 3.1v39.6c0 5.2-2.8 9.9-7.3 12.4L47.2 81c-4.3 2.3-9.6.8-11.9-3.5-.7-1.3-1.1-2.7-1.1-4.2V35.7c0-4.2 2.3-8.1 6-10.1z" fill="#FFF"/><ellipse cx="60.3" cy="43.6" fill="none" rx="18.2" ry="11.3" stroke="#C9C7C7" stroke-miterlimit="10" stroke-width="1.5" transform="rotate(-56.99 60.327 43.637)"/><path d="M68 27.4c-5.2-1.3-12.4 2.8-17.2 10.1S45.3 53 48.6 57.3" fill="none" stroke="#C9C7C7" stroke-miterlimit="10" stroke-width="1.5"/><path d="M70.3 28.3c-.7-.5-1.5-.8-2.3-1 3.3 4.3 2.5 12.5-2.2 19.8S53.9 58.5 48.6 57.2c.5.7 1.1 1.2 1.8 1.7 5.2 3.4 13.9-.7 19.4-9.1s5.7-18.1.5-21.5z" fill="#C9C7C7"/><ellipse cx="54.2" cy="46.6" fill="#C9C7C7" rx="2.7" ry="1.7" transform="rotate(-56.99 54.215 46.63)"/><ellipse cx="65.1" cy="39.7" fill="#C9C7C7" rx="2.7" ry="1.7" transform="rotate(-56.99 65.1 39.683)"/><path fill="#E6E4E3" d="M36.3 29l-8.8-5.9-1.7 2.5 9.3 5.5z"/><path d="M122 63.2l8.1-4.1c.8-.4 1.7-.3 2.4.2s.9 1.5.3 2.3c-.1.2-.3.4-.6.5L122 67.3v-4.1zM110.9 56.7l8.1-4.1c.8-.4 1.7-.3 2.4.2s.9 1.6.3 2.3c-.1.2-.3.4-.5.5L110.9 61v-4.3z" fill="#C9C7C7"/><path d="M79.5 77.1l10.2-10.4c5.6-12.3 11.7-15.2 11.7-15.2 6.2-3.5 15.1.4 19.9 8.8s3.8 18.1-2.3 21.7c-3.6 3.6-20.4 2.8-20.4 2.8l-13 3.3c-.2.1-.4.1-.7.2l-.4.1c-2.3 0-4.5-1.3-5.6-3.3-1.8-3.1-1.5-6.5.6-8z" fill="#FFF"/><path d="M89.7 66.7l-.3.3c-.4-5.7 1.7-10.8 6-13.3 1.5-.8 3.1-1.3 4.8-1.4-2.2 1.5-6.5 5.5-10.5 14.4zM117 83.1c-.9 1.1-1.9 2-3.1 2.7-4.1 2.4-9.2 1.8-13.8-1 3.5 0 12.4 0 16.9-1.7z" fill="none"/><path d="M116.8 62.8c-4-6.9-10.7-10.9-16.6-10.5.4-.3.8-.6 1.3-.8 6.2-3.5 15.1.4 19.9 8.8s3.8 18.1-2.3 21.7c-.6.5-1.3.9-2 1.2 3.7-5 3.9-13.2-.3-20.4z" fill="#C9C7C7"/><path d="M92.5 76.8c-1.7-3-2.8-6.3-3.1-9.8l.3-.3c4-8.9 8.3-12.8 10.4-14.4 5.9-.4 12.7 3.5 16.6 10.5 4.2 7.2 4.1 15.5.2 20.3-4.5 1.8-13.4 1.8-17 1.7-3-2-5.6-4.8-7.4-8z" fill="#FFF"/><ellipse cx="82.1" cy="82.7" fill="#C9C7C7" rx="3.8" ry="6.1" transform="rotate(-30 82.097 82.698)"/><path d="M94.2 85.5c2.5-1.5 2.7-5.9.3-10s-6.3-6.2-8.8-4.7" fill="none" stroke="#E6E4E3" stroke-miterlimit="10" stroke-width="1.5"/><path d="M91.6 86.4c2.3-1.3 2.5-5.4.3-9.2s-5.8-5.7-8.1-4.3" fill="none" stroke="#E6E4E3" stroke-miterlimit="10" stroke-width="1.5"/><path d="M88.5 87.2c2.1-1.2 2.2-4.9.3-8.3s-5.2-5.1-7.3-3.9" fill="none" stroke="#E6E4E3" stroke-miterlimit="10" stroke-width="1.5"/><path d="M74.7 119c-.2 0-.4-.1-.6-.3-.8-1.1-1.6-2.2-2.3-3.3-.2-.3-.1-.8.2-1 .3-.2.8-.1 1 .2.7 1 1.4 2.1 2.2 3.2.3.3.2.8-.1 1-.1.1-.2.2-.4.2zm-4.2-6.7c-.3 0-.5-.2-.7-.4-.6-1.3-1.1-2.5-1.5-3.8-.1-.4.1-.8.5-.9s.8.1.9.5c.4 1.2.8 2.4 1.4 3.6.2.4 0 .8-.3 1h-.3zm-2.3-7.5c-.4 0-.7-.3-.7-.7-.1-.7-.1-1.4-.1-2.2 0-.6 0-1.3.1-1.9 0-.4.4-.7.8-.7s.7.4.7.8c-.1.6-.1 1.2-.1 1.8 0 .7 0 1.3.1 2 0 .5-.3.8-.8.9.1 0 .1 0 0 0zm.9-7.8h-.2c-.4-.1-.6-.5-.5-.9.1-.3.2-.7.4-1l1.2-2.7c.2-.4.6-.5 1-.3s.5.6.3 1c-.4.8-.8 1.6-1.2 2.5-.1.3-.2.6-.4 1 0 .2-.3.4-.6.4zm3.7-6.9c-.2 0-.3-.1-.5-.2-.3-.3-.4-.7-.1-1 .9-1.1 1.8-2.1 2.8-3 .3-.3.8-.2 1 .1.3.3.2.8-.1 1-.9.8-1.8 1.7-2.6 2.8-.1.2-.3.3-.5.3zm5.9-5.1c-.3 0-.5-.1-.6-.4-.2-.4-.1-.8.3-1 1.2-.7 2.4-1.2 3.7-1.6.4-.1.8.1.9.5s-.1.8-.5.9c-1.2.4-2.4.9-3.5 1.5 0 .1-.1.1-.3.1z" fill="#8B8A8D"/><path d="M121.4 60.2c-4.9-8.4-13.8-12.3-19.9-8.8H101.2l-.1.1h-.1l-.1.1h-.1l-.2.1h-.1c-.1.1-.2.1-.2.2l-.4.3-.1.1-.4.3-.1.1-.3.3-.1.1c-.1.1-.3.2-.4.4l-.1.1-.5.5-.1.1-.5.5-.2.2-.6.7c-.2.2-.4.5-.6.7l-.2.2-.6.7s0 .1-.1.1l-.6.9-.2.2-.5.8-.1.2c-.2.3-.4.7-.7 1l-.2.2c-.2.3-.4.6-.5.9-.1.1-.1.2-.2.3-.2.4-.4.8-.7 1.2l-.1.2-.6 1.1c-.1.1-.1.2-.2.4-.2.5-.4.9-.7 1.4l-10.2 11c-2.1 1.5-2.3 4.9-.6 7.8 1.1 2 3.3 3.3 5.6 3.3l.4-.1c.2 0 .4-.1.7-.2l13-3.2h8.5c.3 0 .7 0 1-.1h.1l1.1-.1h.2l1-.1h.2c.8-.1 1.5-.2 2.2-.3h.2l.9-.2h.2c.3-.1.7-.1 1-.2l.8-.2.2-.1c.3-.1.5-.2.7-.3h.1c.2-.1.3-.1.4-.2l.2-.1.4-.2.1-.1.3-.2.1-.1c.1-.1.3-.2.4-.3 6.3-3.6 7.3-13.2 2.5-21.7zM77.6 8C73.1 4.1 66 .7 62.7 2.3 55.4 6 30.9 19.8 30.9 19.8c-3.7 2-6 5.9-6 10.1v37.5c0 9.2 14.9 17.3 20.8 14.1.5-.2 1-.4 1.5-.7l27.3-15c4.5-2.5 7.3-7.2 7.3-12.3V14c0-2.7-1.7-5-4.2-6z" fill="none" stroke="#8B8A8D" stroke-miterlimit="10" stroke-width="1.5"/><path fill="none" stroke="#C9C7C7" stroke-linecap="round" stroke-linejoin="round" stroke-width="1.5" d="M93.6 38.3l3.6 6.1M104.8 34.5l1.2 7.4M114.9 42.5l1.9-7.9"/></svg>