<svg height="90" version="1" width="93" xmlns="http://www.w3.org/2000/svg"><path d="M91 46.6c-.3 24.6-4.2 41.4-28.8 41.2-11.7-.1-41.2 1.4-49-6.1C4.5 73.4 1.9 58.5 2 45.7s4.2-25.8 13.2-33.8c8-7.2 20.1-10.3 31.7-10.2s27.7 3.6 35.5 10.9c8.8 8.1 8.7 21 8.6 34z" fill="#FFF" opacity=".5"/><path d="M84.2 29.3c9.1 20.5 12.2 36-8.3 45.1-9.8 4.3-33.7 16.7-43 13.4C22.6 84.3 14.7 72.9 10 62.2s-6.2-23-1.8-33.1c3.9-9 12.8-16.2 22.5-20.5s24.2-7.5 33.5-4.4c10.4 3.6 15.2 14.3 20 25.1z" fill="#FFF"/><path d="M17.7 43.8S8.3 50.4 8.2 56s.6 10 9.4 15 14.5 6.3 20.7 4.8C54 72.1 77.2 56.4 80.4 56.4s4.8-2.4 4.5-5.7-2.7-8.9-5.8-10.6-61.4 3.7-61.4 3.7z" fill="#39F"/><path d="M17.6 41.9s-9.3 6.4-9.3 11.9S9.5 63 18 68s13.4 6.2 19.7 5.3 28.5-12.2 28.5-12.2 9.7-7.5 12.8-7.4 4.6-1.7 4.3-5-2.6-7.9-5.7-9.6-60 2.8-60 2.8z" fill="#9CF"/><path d="M79.9 46c-.1 10.4-19.5 20.1-31.8 20-17.9-.2-32.3-2.5-32.2-19.5s17.3-32.7 35.2-32.9c19.6-.2 29 15.4 28.8 32.4z" fill="#E5F2FF"/><path d="M24.6 50.4h-.5c-1.4-.2-2.3-1.5-2-2.9.2-.8 3-21.3 18.5-28.6 21.6-10.1 29.8 1 29.8 1-8.8-2.7-20.3-1-27.1 3.2C30.6 30.8 27.1 48.2 27 48.3c-.2 1.2-1.2 2.1-2.4 2.1z" fill="#E5F2FF" stroke="#9CF" stroke-miterlimit="10" stroke-width="1.5"/><path d="M40.1 50.9h-.3c-1-.2-1.7-1.2-1.5-2.2.1-.6 3-15 14.2-21.8 5.9-3.6 14.8-4.1 21.8-2.2.6.1 2.9 4.7 2.9 4.7-6.4-2.7-17.5-2.4-22.7.8-9.8 5.7-12.5 19-12.5 19.1-.2.9-1 1.6-1.9 1.6z" fill="#E5F2FF" stroke="#9CF" stroke-linecap="round" stroke-linejoin="round" stroke-width="1.5"/><path d="M16.3 36.4c.1-.5 1.3-17 21.9-20.9 3-.5-9.2.9-19.2 21-1.1 2.3-2.9.8-2.7-.1z" fill="#E5F2FF" stroke="#9CF" stroke-miterlimit="10" stroke-width="1.5"/><path d="M47.5 56.5c1.2.5 2.5.3 3.4-.7l11.5-12.3c1.1-1.2 1-3-.1-4.2-.3-.3-.7-.5-1.1-.6L55.8 37c-1.4-.5-3 .2-3.6 1.6-1.7 1.9-3.1 4.1-4.1 6.5-1 2.4-1.6 5-2 7.6-.6 1.5 0 3.1 1.4 3.8zM54.6 58l12.5-7.4c.6-.3.8-1 .5-1.5 0 0 0-.1-.1-.1L66 46.6c-.3-.5-1-.7-1.6-.4-.1 0-.1.1-.2.1L53 56.2c-.4.4-.5 1-.2 1.5.5.5 1.2.7 1.8.3z" fill="#FFF"/><path d="M54.2 14.2c9 0 15.3 5.1 16.4 6.7.1.2 8.3 9.2 9.2 19.8 2.3 2.3 3.8 5.3 4.2 8.5.1.6.1 1.1 0 1.7v.1c.3 3.3-1.2 5-4.3 5h-.1C76.4 56 53.4 72.1 38 75.8c-1.3.3-2.7.5-4 .5-4.6 0-9.1-2-15.8-5.8-8.6-5-9.9-8.7-9.9-14.2v-.5-1.3c0-4.1 5.3-8.8 7.9-10.9.3-1.8.8-3.7 1.4-5.4-.4-.4-.5-.9-.4-1.4.1-.5 2-12.5 11.5-17.2 2.7-1.4 6.5-3.3 10.3-3.3h.2c.5 0 8.1-1.4 12.1-1.9.9-.2 1.9-.2 2.9-.2m-.1-1.5c-1 0-2.1.1-3.1.2-2.4.3-6.1.9-8.8 1.3-1.4.2-2.8.5-3.1.5H39c-4.2 0-8.3 2.1-11 3.4-4.4 2.3-7.8 6.1-9.8 10.6-1.1 2.4-2 5-2.5 7.6-.1.6 0 1.3.2 1.9-.5 1.4-.9 2.9-1.1 4.4-3.2 2.6-8 7.2-8 11.7V56.1c-.1 6.1 1.6 10.4 10.6 15.5 6.7 3.8 11.5 6 16.6 6 1.5 0 2.9-.2 4.3-.5 9.9-2.4 22.4-9.5 31.6-14.7 4.1-2.3 8.7-4.9 9.7-5h.1c1.6.1 3.2-.5 4.3-1.6 1.2-1.4 1.7-3.2 1.4-5 .1-.6.1-1.2 0-1.8-.4-3.4-1.9-6.5-4.2-9-1-9.5-7.5-17.6-9.4-20-1.5-2-8.1-7.3-17.7-7.3z" fill="#0000A0"/></svg>