<svg height="120" version="1" width="152" xmlns="http://www.w3.org/2000/svg"><path d="M143.1 47.6c1.2 10.9 3.1 30.1-3.2 39.3-10.4 15.3-39.6 20.6-62.5 23.1-13.2 1.4-30.3.9-41.2-3.2-19.5-7.3-29-23.6-31-42.2-1.8-16.2-6.7-35.1 6.6-46.3 10.7-9 35-14.5 51.3-16.3 18-2 32.3 8.9 45.3 16.8 13.5 8.1 33 13.9 34.7 28.8z" fill="#E6E4E3" opacity=".5"/><path d="M137.9 54.4c0 10-.2 27.6-6.8 35.3-11 12.9-38 14.7-59 14.7-12.1 0-27.5-2.2-37-7-17-8.6-24-24.3-24-41.4 0-14.9-2.6-32.5 10.6-41.4C32.4 7.6 54.9 5 69.9 5c16.5 0 28.4 11.3 39.4 19.7 11.5 8.8 28.6 16.1 28.6 29.7z" fill="#E6E4E3"/><path d="M149.2 112.3c0 2-2 3.7-4.9 4.7-2 .7-4.1 1-6.1 1-6.1 0-11.1-2.5-11.1-5.7s5-5.7 11.1-5.7 11 2.5 11 5.7zM142.1 89.4c0-7.7-12.1-13.9-26.9-13.9-12 0-22.1 4-25.6 9.6-3.9-1.1-7.9-1.6-11.9-1.6-13.7 0-24.8 5.7-24.8 12.8s11.1 12.8 24.8 12.8h.2c1.9 0 3.8.8 5.1 2.2 3.3 3.3 10 5.6 17.8 5.6 11 0 20-4.6 20-10.3v-.5c-.2-1.6.9-3.2 2.6-3.4 10.7-1.9 18.7-7.1 18.7-13.3z" fill="#C9C7C7"/><path d="M55.3 12.4c8.9-6.2 18.9-7.2 22.3-2.4l32.6 37.6" fill="#FFF" opacity=".2" stroke="#C9C7C7" stroke-linecap="round" stroke-linejoin="round" stroke-width="1.5"/><path d="M36.3 24.3c7-8.3 16.4-11.9 20.9-8.1L98.5 44" fill="#FFF" opacity=".4" stroke="#C9C7C7" stroke-linecap="round" stroke-linejoin="round" stroke-width="1.5"/><path d="M70 89.9L30.1 59.4c-.1-.1-.3-.1-.4-.2-5.1-3-4.8-13 .8-22.4s14.1-14.5 19.2-11.6l45.4 20.3L70 89.9z" fill="#FFF" stroke="#C9C7C7" stroke-linecap="round" stroke-linejoin="round" stroke-width="1.5"/><path d="M74.1 63.3c-8.9 15.1-9 30.3-.4 35.4.8.5 1.6.8 2.4 1.1 8.6 2.6 20.3-4.9 28.3-18.6 8.9-15.1 9-30.3.4-35.4S83 48.2 74.1 63.3z" fill="#E6E4E3" stroke="#C9C7C7" stroke-linecap="round" stroke-linejoin="round" stroke-width="1.5"/><ellipse cx="91.8" cy="73.2" fill="#FFF" rx="30.5" ry="16.8" transform="rotate(-59.568 91.845 73.203)"/><path d="M107.5 51.8c-6.3-3.7-17.6 3.8-25.2 16.8s-8.7 26.5-2.5 30.2S97.4 95 105 82c3.8-6.5 13.3-23.3 13.3-23.3s-7.7-5.1-10.8-6.9z" fill="#E6E4E3" stroke="#C9C7C7" stroke-miterlimit="10" stroke-width="1.5"/><ellipse cx="100.5" cy="79.4" fill="#FFF" rx="27.3" ry="13.2" stroke="#C9C7C7" stroke-miterlimit="10" stroke-width="1.5" transform="rotate(-48.486 100.486 79.44)"/><path d="M106.7 87.8c6.7-7.6 9.2-16.4 5.5-19.7s-12.1.3-18.9 7.9" fill="#FFF" stroke="#8B8A8D" stroke-linecap="round" stroke-linejoin="round" stroke-width="1.5"/><path fill="none" stroke="#8B8A8D" stroke-linecap="round" stroke-linejoin="round" stroke-width="1.5" d="M116.7 65.7l-4.5-4.1"/><path d="M19.3 50.8s-1 9.1 5.6 15.3M120.4 41.1s9.2 3.2 11.1 17.3M122.3 50.6s3.4 3 4 9.7" fill="none" stroke="#C9C7C7" stroke-linecap="round" stroke-linejoin="round" stroke-width="1.5"/><path d="M118.6 58.9l-.3-.3c-.2-.2-.5-.4-.8-.5-1-.7-2.9-1.9-4.8-3.1-.6-3.4-2.6-6.3-5.4-8.1-.6-.4-1.3-.7-2-.9l-.4-.2c-3.2-1.9-7-2-11-.7L49.7 25.3c-5.1-3-13.7 2.2-19.2 11.6s-5.8 19.4-.8 22.4c.1.1.3.2.4.2L67.6 88c.6 4.8 2.7 8.7 6.2 10.7.8.5 1.6.8 2.4 1.1.6.2 1.1.3 1.7.4 1.9.7 3.9.9 5.9.5 6 3 17.3-2.2 26.6-12.6 10-11.3 13.7-24.3 8.2-29.2z" fill="none" stroke="#8B8A8D" stroke-linecap="round" stroke-linejoin="round" stroke-width="1.5"/></svg>