<svg height="120" version="1" width="144" xmlns="http://www.w3.org/2000/svg"><path d="M142.4 54.3c0 16.4.1 30.5-16.1 40.8-14.6 9.3-30.3 15.7-51.7 15.7-22.6 0-36.9-7.3-51.6-17.5S1.5 72.4 1.5 56.8c0-15 4.1-25.5 17.8-35.6 14.9-11 28.5-16.1 52.1-16.1 19.4 0 25.2 0 39.2 7.8 18.6 10.5 31.8 23.6 31.8 41.4z" fill="#E6E4E3" opacity=".5"/><path d="M137.8 53.7c0 14.1-6.1 25.8-20 34.7-12.5 8-19.1 17.6-37.5 17.6-19.4 0-38.9-5.5-51.6-14.3S6 74.8 6 61.4c0-12.8 0-24.6 11.8-33.3 12.8-9.4 32.6-17 52.8-17 16.7 0 19.8 3.7 31.9 10.4 16 9 35.3 17 35.3 32.2z" fill="#E6E4E3"/><path d="M38.7 84.8V34.3c0-4.3 2.3-8.3 6-10.5L83.3 1.4c4.5-1.3 11.2 4.4 11.1 5l.1 52.3-5.9-2.7-7.9-6.4-2.9 18.8-5.8-2.8-8.3-6.9-1.5 18.7-5.8-2.8-9.3-8-2.6 21-5.8-2.8" fill="#C9C7C7"/><path d="M44.5 87.6V37c0-4.3 2.3-8.3 6-10.5L89.1 4.2c1.7-1 3.9-.4 4.9 1.3.3.5.5 1.2.5 1.8v51.5l-7.9-6.4-8.7 16-8.3-6.9-7.3 16-9.3-8-8.5 18.1" fill="#FFF"/><path d="M94.4 11.4V7.3c0-2-1.6-3.6-3.6-3.6-.6 0-1.2.2-1.8.5L50.5 26.6c-3.7 2.2-6 6.1-6 10.5v3l49.9-28.7z" fill="#E6E4E3"/><ellipse cx="90.7" cy="8.6" fill="#8B8A8D" rx="2.1" ry="1.5" transform="rotate(-53.352 90.665 8.65)"/><ellipse cx="85.1" cy="11.8" fill="#8B8A8D" rx="2.1" ry="1.5" transform="rotate(-53.352 85.05 11.822)"/><ellipse cx="79.3" cy="15.4" fill="#8B8A8D" rx="2.1" ry="1.5" transform="rotate(-53.352 79.338 15.378)"/><path fill="#E6E4E3" opacity=".5" d="M73.5 64.8l4.3 3.5 8.7-16 1.9 1.6 6-13.1V19.9z"/><path d="M94.4 58.8V7.3c0-.3 0-.5-.1-.8v-.1C94 5 92.8 4 91.4 3.8c-2.3-1.6-5.6-3.1-8.1-2.4L44.7 23.8c-3.7 2.2-6 6.2-6 10.5v50.5l5.8 2.8" fill="none" stroke="#8B8A8D" stroke-linecap="round" stroke-linejoin="round" stroke-width="1.5"/><path d="M98.2 72.3v12.3c0 3.4-1.8 6.6-4.8 8.3l-34.9 25.3c-2.8 1.6-10.2-3.1-10.2-6.3v-10.7l7.9-18.4 4.5 2.4 4.2 6.3 8.3-17.9 4.5 2.4 2.8 6.4 9.3-16.8 4.5 2.4 3.9 4.3" fill="#C9C7C7"/><path d="M102.7 74.8V87c0 3.4-1.8 6.6-4.8 8.3L59 117.9c-2 1.2-4.5.5-5.7-1.5-.4-.6-.6-1.4-.6-2.1v-10.7l7.9-18.4 8.7 8.8 8.3-17.9L85 85l9.3-16.8 8.4 6.6" fill="#FFF"/><path d="M102.7 74.8l-8.4-6.6L85 85l-7.3-8.9L69.4 94l-8.7-8.8-7.9 18.4v10.7c0 2.3 1.9 4.2 4.2 4.2.7 0 1.5-.2 2.1-.6l38.8-22.6c3-1.7 4.8-4.9 4.8-8.3V74.8" fill="#FFF"/><path fill="#E6E4E3" opacity=".5" d="M77.7 76.1l-19.2 42.1 14.4-8.3 12.1-25zM97.2 70.4l-16.5 35 2.7-1.6 15.3-32.2z"/><path fill="none" stroke="#8B8A8D" stroke-linecap="round" stroke-linejoin="round" stroke-width="1.5" d="M102.7 74.8l-8.4-6.7-4.5-2.4-8.3 15-3.8-4.6-4.5-2.4-7.6 16.4-4.9-4.9-4.5-2.5-7.9 18.4"/><path d="M48.3 101.1v10.7c0 3.2 7.4 8 10.2 6.3l.6-.3 38.8-22.6c3-1.7 4.8-4.9 4.8-8.3V74.8" fill="none" stroke="#8B8A8D" stroke-linecap="round" stroke-linejoin="round" stroke-width="1.5"/><path fill="none" stroke="#C9C7C7" stroke-linecap="round" stroke-linejoin="round" stroke-width="1.5" d="M102.7 56.5L107 49M104.9 63.5l9.5-1.2M21.9 93.1l10.8-1.3M32 108.9l6.2-7.4"/></svg>